# File created by Blade
# Date/Time:  Tue Jan 27 19:18:41 2015
# Frame Rate: 120.000 fps
#------------------------------------------------------
:FULLY-SPECIFIED
:DEGREES
2855
root 2.301769 32.225391 1.803382 -2.500352 -11.352927 -1.259344
Spine 0.409238 -10.557095 -1.278392
Head 12.267718 0.909123 0.058975
LeftShoulder -10.403809 -3.363695 25.968714
LeftArm -7.794285 42.848228 -106.477409
LeftForeArm 5.005227 -0.000000 16.626917
LeftHand 10.701593 0.000000 -5.149110
LeftHandThumb1 -26.253704 0.000000 33.147579
RightShoulder -26.078145 -14.778933 -42.876122
RightArm -39.219967 71.069990 5.200031
RightForeArm 21.302395 -0.000000 103.834868
RightHand 26.682230 0.000000 -13.953072
RightHandThumb1 -24.326973 -0.000000 -32.862282
LeftUpLeg 14.267672 11.346398 4.772418
LeftLeg 0.342750 -0.000000 -0.000000
LeftFoot -19.296950 12.237560 -25.929237
LeftToeBase 17.130200 -0.000000 -0.000000
RightUpLeg 8.478191 1.723260 6.094267
RightLeg 1.426416 -0.000000 -0.000000
RightFoot -12.043001 -13.043648 12.167197
RightToeBase 11.677637 -0.000000 -0.000000
2856
root 2.298278 32.225367 1.803782 -2.513715 -11.335924 -1.251334
Spine 0.430193 -10.597485 -1.277887
Head 12.262104 0.937501 0.056706
LeftShoulder -10.383317 -3.369180 25.953015
LeftArm -7.811859 42.829076 -106.496230
LeftForeArm 5.023083 -0.000000 16.446532
LeftHand 10.460652 -0.000000 -5.313057
LeftHandThumb1 -26.253704 0.000000 33.147579
RightShoulder -26.095722 -14.760161 -42.872806
RightArm -39.197638 71.106366 5.204055
RightForeArm 21.237253 -0.000000 103.859081
RightHand 26.691937 0.000000 -13.942479
RightHandThumb1 -24.326973 -0.000000 -32.862282
LeftUpLeg 14.291284 11.363456 4.782763
LeftLeg 0.318994 -0.000000 -0.000000
LeftFoot -19.264067 12.205613 -25.931750
LeftToeBase 17.120115 -0.000000 -0.000000
RightUpLeg 8.495745 1.702626 6.091447
RightLeg 1.408864 -0.000000 -0.000000
RightFoot -12.025984 -13.078284 12.124006
RightToeBase 10.901408 -0.000000 -0.000000
2857
root 2.295394 32.225066 1.803392 -2.516078 -11.316362 -1.245882
Spine 0.439190 -10.644502 -1.268452
Head 12.251225 0.942736 0.059515
LeftShoulder -10.367439 -3.376038 25.931211
LeftArm -7.837345 42.828233 -106.519152
LeftForeArm 5.045059 -0.000000 16.241834
LeftHand 10.484899 -0.000000 -5.235803
LeftHandThumb1 -26.253704 0.000000 33.147579
RightShoulder -26.116260 -14.731148 -42.872032
RightArm -39.160800 71.146332 5.214719
RightForeArm 21.188546 0.000000 103.886723
RightHand 26.668798 -0.000000 -13.915747
RightHandThumb1 -24.326973 -0.000000 -32.862282
LeftUpLeg 14.295441 11.354787 4.783612
LeftLeg 0.318277 -0.000000 -0.000000
LeftFoot -19.239147 12.107370 -26.122735
LeftToeBase 16.874549 -0.000000 -0.000000
RightUpLeg 8.497601 1.686971 6.093599
RightLeg 1.409526 -0.000000 -0.000000
RightFoot -12.036524 -13.089202 12.120724
RightToeBase 10.811216 -0.000000 -0.000000
2858
root 2.291713 32.224862 1.804774 -2.528379 -11.290555 -1.239489
Spine 0.446657 -10.705542 -1.258849
Head 12.249226 0.895095 0.070479
LeftShoulder -10.332671 -3.413163 25.916472
LeftArm -7.932687 42.773351 -106.567664
LeftForeArm 5.016722 0.000000 16.091877
LeftHand 10.247722 -0.000000 -5.314247
LeftHandThumb1 -26.253704 0.000000 33.147579
RightShoulder -26.106882 -14.709234 -42.885651
RightArm -39.198208 71.189172 5.162772
RightForeArm 21.178136 -0.000000 103.892389
RightHand 26.735180 -0.000000 -13.888808
RightHandThumb1 -24.326973 -0.000000 -32.862282
LeftUpLeg 14.319227 11.378246 4.795144
LeftLeg 0.289954 -0.000000 -0.000000
LeftFoot -19.139089 12.189201 -25.765962
LeftToeBase 16.798571 -0.000000 -0.000000
RightUpLeg 8.518180 1.684432 6.096061
RightLeg 1.402041 -0.000000 -0.000000
RightFoot -12.039672 -13.105983 12.114818
RightToeBase 10.884148 -0.000000 -0.000000
2859
root 2.287797 32.224308 1.805431 -2.536086 -11.262928 -1.232156
Spine 0.455346 -10.774552 -1.257287
Head 12.257407 0.924526 0.070774
LeftShoulder -10.341710 -3.439160 25.923085
LeftArm -7.997353 42.737815 -106.612231
LeftForeArm 5.025818 -0.000000 15.931583
LeftHand 10.087735 -0.000000 -5.372701
LeftHandThumb1 -26.253704 0.000000 33.147579
RightShoulder -26.103591 -14.707205 -42.871084
RightArm -39.221513 71.261392 5.112692
RightForeArm 21.186747 -0.000000 103.901767
RightHand 26.710429 -0.000000 -13.848378
RightHandThumb1 -24.326973 -0.000000 -32.862282
LeftUpLeg 14.329929 11.401772 4.812490
LeftLeg 0.272620 -0.000000 -0.000000
LeftFoot -19.165438 12.040859 -26.081422
LeftToeBase 16.840131 -0.000000 -0.000000
RightUpLeg 8.527913 1.682334 6.099441
RightLeg 1.404596 -0.000000 -0.000000
RightFoot -12.062003 -13.133699 12.116964
RightToeBase 10.881895 -0.000000 -0.000000
2860
root 2.284966 32.224128 1.806358 -2.542237 -11.234281 -1.225856
Spine 0.460889 -10.833446 -1.242744
Head 12.249663 0.908548 0.059392
LeftShoulder -10.345387 -3.411565 25.909423
LeftArm -7.981109 42.716226 -106.593063
LeftForeArm 5.071637 0.000000 15.759324
LeftHand 10.148904 -0.000000 -5.400879
LeftHandThumb1 -26.253704 0.000000 33.147579
RightShoulder -26.099545 -14.695648 -42.880022
RightArm -39.259459 71.295857 5.063871
RightForeArm 21.189267 -0.000000 103.893872
RightHand 26.790217 -0.000000 -13.832877
RightHandThumb1 -24.326973 -0.000000 -32.862282
LeftUpLeg 14.343619 11.426371 4.825664
LeftLeg 0.245760 -0.000000 -0.000000
LeftFoot -19.139208 12.069040 -25.923808
LeftToeBase 17.096907 -0.000000 -0.000000
RightUpLeg 8.532327 1.677059 6.100232
RightLeg 1.414160 -0.000000 -0.000000
RightFoot -12.072292 -13.155484 12.110058
RightToeBase 10.859574 -0.000000 -0.000000
